<?xml version="1.0" encoding="utf-8"?>
<!-- Generator: Adobe Illustrator 16.0.0, SVG Export Plug-In . SVG Version: 6.00 Build 0)  -->
<!DOCTYPE svg PUBLIC "-//W3C//DTD SVG 1.1//EN" "http://www.w3.org/Graphics/SVG/1.1/DTD/svg11.dtd">
<svg version="1.1" id="Layer_1" xmlns="http://www.w3.org/2000/svg" xmlns:xlink="http://www.w3.org/1999/xlink" x="0px" y="0px"
	 width="1200px" height="1000px" viewBox="0 0 1200 1000" enable-background="new 0 0 1200 1000" xml:space="preserve">
<path fill="#FFFFFF" d="M648.922,14.917C383.877,14.917,169,229.794,169,494.84c0,265.045,214.877,479.923,479.922,479.923
	c265.046,0,479.924-214.878,479.924-479.923C1128.845,229.794,913.968,14.917,648.922,14.917z M781.175,308.535h-69.719
	c-11.445,0-27.528,5.723-27.528,30.034v64.915h96.996l-11.362,110.154h-85.634v313.71H554.188v-313.71h-61.703V403.359h61.703
	v-71.347c0-51.004,24.223-130.915,130.909-130.915l96.077,0.417V308.535z"/>
</svg>
