<?xml version="1.0" encoding="utf-8"?>
<!-- Generator: Adobe Illustrator 16.0.0, SVG Export Plug-In . SVG Version: 6.00 Build 0)  -->
<!DOCTYPE svg PUBLIC "-//W3C//DTD SVG 1.1//EN" "http://www.w3.org/Graphics/SVG/1.1/DTD/svg11.dtd">
<svg version="1.1" id="Layer_1" xmlns="http://www.w3.org/2000/svg" xmlns:xlink="http://www.w3.org/1999/xlink" x="0px" y="0px"
	 width="1200px" height="1000px" viewBox="0 0 1200 1000" enable-background="new 0 0 1200 1000" xml:space="preserve">
<g>
	<path fill="#FFFFFF" d="M696.641,444.27v-1.13c-0.209,0.376-0.543,0.753-0.753,1.13H696.641z"/>
	<path fill="#FFFFFF" d="M645.245,22.05c-265.562,0-480.856,215.295-480.856,480.857c0,265.562,215.295,480.856,480.856,480.856
		s480.857-215.295,480.857-480.856C1126.102,237.345,910.806,22.05,645.245,22.05z M518.141,739.84H403.248V394.13h114.893V739.84z
		 M460.666,346.961h-0.707c-38.594,0-63.534-26.536-63.534-59.726c0-33.901,25.703-59.725,65.046-59.725
		c39.301,0,63.482,25.824,64.246,59.725C525.717,320.425,500.772,346.961,460.666,346.961z M932.529,739.84H817.598V554.889
		c0-46.457-16.574-78.182-58.219-78.182c-31.725,0-50.601,21.387-58.93,42.063c-3.056,7.366-3.809,17.619-3.809,27.999V739.84
		H581.665c0,0,1.553-313.274,0-345.71h114.977v49.011c15.276-23.522,42.523-57.131,103.588-57.131
		c75.63,0,132.3,49.429,132.3,155.57V739.84z"/>
</g>
</svg>
