<?xml version="1.0" encoding="utf-8"?>
<!-- Generator: Adobe Illustrator 16.0.0, SVG Export Plug-In . SVG Version: 6.00 Build 0)  -->
<!DOCTYPE svg PUBLIC "-//W3C//DTD SVG 1.1//EN" "http://www.w3.org/Graphics/SVG/1.1/DTD/svg11.dtd">
<svg version="1.1" id="Layer_1" xmlns="http://www.w3.org/2000/svg" xmlns:xlink="http://www.w3.org/1999/xlink" x="0px" y="0px"
	 width="100px" height="100px" viewBox="0 0 1920 1080" enable-background="new 0 0 1920 1080" xml:space="preserve">
<polygon fill="#E6E6E6" points="825.705,545.944 825.705,879.413 1094.296,879.413 1094.296,545.944 1222.107,545.944 960,200.587 
	697.893,545.944 "/>
<g>
	<path fill="#8B0000" d="M1094.292,911.18H825.705c-17.539,0-31.766-14.224-31.766-31.765V577.711h-96.046
		c-12.063,0-23.089-6.832-28.451-17.643c-5.362-10.805-4.145-23.718,3.147-33.328l262.106-345.357
		c6.008-7.912,15.367-12.56,25.304-12.56c9.936,0,19.297,4.647,25.305,12.56l262.106,345.359c7.292,9.608,8.514,22.523,3.147,33.328
		c-5.362,10.807-16.388,17.643-28.451,17.643h-96.047v301.704C1126.056,896.956,1111.836,911.18,1094.292,911.18z M857.474,847.65
		h205.057V545.947c0-17.54,14.223-31.766,31.765-31.766h63.827L960,253.127L761.882,514.179h63.827
		c17.54,0,31.766,14.224,31.766,31.765V847.65L857.474,847.65z"/>
	<path fill="#C8C8C8" d="M960,1080c-297.755,0-540-242.245-540-540C420,242.244,662.245,0,960,0
		c17.54,0,31.766,14.224,31.766,31.765c0,17.542-14.226,31.766-31.766,31.766c-262.727,0-476.47,213.742-476.47,476.47
		c0,262.727,213.743,476.47,476.47,476.47c262.728,0,476.471-213.743,476.471-476.47c0-145.361-65.125-280.938-178.677-371.968
		c-13.69-10.975-15.888-30.968-4.917-44.655c10.977-13.689,30.97-15.882,44.655-4.917C1426.204,221.619,1500,375.262,1500,540
		C1500,837.755,1257.756,1080,960,1080z"/>
</g>
</svg>
