<?xml version="1.0" encoding="utf-8"?>
<!-- Generator: Adobe Illustrator 16.0.0, SVG Export Plug-In . SVG Version: 6.00 Build 0)  -->
<!DOCTYPE svg PUBLIC "-//W3C//DTD SVG 1.1//EN" "http://www.w3.org/Graphics/SVG/1.1/DTD/svg11.dtd">
<svg version="1.1" id="Capa_1" xmlns="http://www.w3.org/2000/svg" xmlns:xlink="http://www.w3.org/1999/xlink" x="0px" y="0px"
	 width="1200px" height="1000px" viewBox="0 0 1200 1000" enable-background="new 0 0 1200 1000" xml:space="preserve">
<g>
	<g>
		<path d="M887.203,629.818c-13.749,0-24.998,11.249-24.998,24.998v222.067c0,2.292-2.917,5.833-5.208,6.25l-373.932,66.245
			l-0.209-100.201c0-7.291-3.124-14.166-8.749-18.957c-5.416-4.791-12.707-6.874-19.999-5.833l-102.701,15.207
			c-27.498-0.833-49.58-23.539-49.58-51.246V654.191c0-13.749-11.249-24.998-24.998-24.998H242.04
			c-9.999,0-17.707-2.708-20.207-7.083c-2.708-4.375-1.458-12.499,3.333-21.248l73.953-141.24
			c6.458-12.291,1.667-27.29-10.624-33.748c-12.291-6.457-27.29-1.666-33.747,10.625l-73.953,141.239
			c-13.124,24.999-13.749,50.622-1.667,70.412c11.874,19.79,34.998,31.039,63.12,31.039h9.791v109.159
			c0,55.829,45.414,101.243,101.243,101.243c1.25,0,2.5,0,3.75-0.209l76.036-11.249v76.661c0,1.042,0,2.083,0.209,3.125
			c1.041,12.708,7.082,24.165,16.665,31.873c8.333,6.666,18.749,10.207,29.581,10.207c2.917,0,5.833-0.208,8.75-0.833l377.473-66.87
			c26.04-4.583,46.455-28.956,46.455-55.413V654.816C912.201,641.067,900.952,629.818,887.203,629.818z"/>
		<path d="M328.284,199.848c4.375,3.125,9.374,4.583,14.374,4.583c7.916,0,15.624-3.749,20.415-10.624
			c7.916-11.249,5.208-26.873-6.041-34.789s-26.873-5.208-34.789,6.041S317.035,191.932,328.284,199.848z"/>
		<path d="M829.291,106.105c4.166,2.917,9.166,4.167,13.957,4.167c8.124,0,16.04-3.958,20.832-11.041
			c7.707-11.458,4.583-27.082-6.875-34.581c-11.457-7.708-27.081-4.583-34.789,6.874C814.708,82.982,817.833,98.397,829.291,106.105
			z"/>
		<path d="M275.996,378.794c0.833,0,1.667,0.208,2.292,0.208c12.707,0,23.748-9.791,24.789-22.707
			c1.25-13.749-8.749-26.04-22.498-27.289c-13.749-1.25-26.04,8.749-27.29,22.498C252.248,365.253,262.247,377.335,275.996,378.794z
			"/>
		<path d="M405.987,135.478c5.624,0,11.457-1.875,16.04-5.833c10.625-8.958,11.875-24.581,3.125-35.206
			c-8.958-10.624-24.582-11.874-35.206-3.124c-10.624,8.957-11.874,24.581-3.125,35.205
			C391.821,132.562,398.904,135.478,405.987,135.478z"/>
		<path d="M290.37,285.884c2.916,1.041,5.833,1.458,8.749,1.458c10.208,0,19.791-6.25,23.54-16.249
			c4.792-12.916-1.875-27.289-14.79-32.081c-12.916-4.791-27.29,1.875-32.081,14.791
			C270.996,266.719,277.454,281.093,290.37,285.884z"/>
		<path d="M995.112,474.62c-13.124-4.166-27.29,2.916-31.456,16.249l0,0c-4.167,13.124,2.916,27.289,16.248,31.456
			c2.5,0.833,5.208,1.25,7.708,1.25c10.624,0,20.415-6.875,23.749-17.291C1015.527,492.952,1008.236,478.995,995.112,474.62z"/>
		<path d="M1005.736,381.293c-13.749-0.625-25.623,9.791-26.248,23.749c-0.625,13.749,9.791,25.623,23.748,26.248
			c0.417,0,0.833,0,1.25,0c13.332,0,24.373-10.416,24.998-23.749C1030.109,393.792,1019.485,382.127,1005.736,381.293z"/>
		<path d="M960.948,562.115c-11.666-7.5-27.082-4.167-34.581,7.499l0,0c-7.5,11.666-4.167,27.081,7.499,34.581
			c4.167,2.708,8.958,3.958,13.541,3.958c8.124,0,16.249-4.166,21.04-11.458C975.947,585.03,972.613,569.614,960.948,562.115z"/>
		<path d="M966.364,249.428c3.749,0,7.708-0.833,11.249-2.708c12.291-6.25,17.29-21.248,11.041-33.539
			c-6.25-12.291-21.249-17.291-33.539-11.041c-12.291,6.249-17.291,21.248-11.041,33.539
			C948.449,244.429,957.198,249.428,966.364,249.428z"/>
		<path d="M972.822,317.965c2.5,11.874,12.916,19.998,24.373,19.998c1.666,0,3.333-0.208,5.208-0.625
			c13.541-2.916,22.29-16.04,19.374-29.581c-2.917-13.54-16.041-22.29-29.582-19.373C978.655,291.3,969.905,304.424,972.822,317.965
			z"/>
		<path d="M932.616,130.27c-9.166-10.416-24.998-11.249-35.206-2.083c-10.207,9.166-11.249,24.998-2.083,35.206
			c5,5.624,11.874,8.332,18.749,8.332c5.833,0,11.874-2.083,16.457-6.249C940.741,156.518,941.782,140.686,932.616,130.27z"/>
		<path d="M751.171,67.358c2.708,0.833,5.417,1.458,8.125,1.458c10.415,0,19.998-6.458,23.54-16.874
			c4.374-13.124-2.5-27.289-15.624-31.664s-27.29,2.5-31.665,15.624C731.173,48.609,738.255,62.983,751.171,67.358z"/>
		<path d="M484.939,84.857c3.542,0,7.083-0.834,10.625-2.292c12.499-5.833,17.915-20.832,11.874-33.331
			c-5.833-12.499-20.832-17.915-33.331-11.874c-12.499,5.833-17.916,20.832-11.874,33.331
			C466.607,79.649,475.565,84.857,484.939,84.857z"/>
		<path d="M665.76,50.068L665.76,50.068c0.625,0,1.25,0,1.666,0c12.916,0,23.957-10,24.998-23.332
			c1.042-13.749-9.374-25.623-23.123-26.665c-13.749-1.041-25.831,9.375-26.665,23.124C641.595,37.152,652.011,49.234,665.76,50.068
			z"/>
		<path d="M573.891,55.692c1.458,0,3.125-0.208,4.792-0.416c13.54-2.5,22.498-15.624,19.998-29.165S583.057,3.613,569.517,6.112
			c-13.541,2.5-22.499,15.624-19.999,29.165C551.601,47.359,562.226,55.692,573.891,55.692z"/>
	</g>
</g>
</svg>
