<?xml version="1.0" encoding="utf-8"?>
<!-- Generator: Adobe Illustrator 16.0.0, SVG Export Plug-In . SVG Version: 6.00 Build 0)  -->
<!DOCTYPE svg PUBLIC "-//W3C//DTD SVG 1.1//EN" "http://www.w3.org/Graphics/SVG/1.1/DTD/svg11.dtd">
<svg version="1.1" id="Layer_1" xmlns="http://www.w3.org/2000/svg" xmlns:xlink="http://www.w3.org/1999/xlink" x="0px" y="0px"
	 width="393px" height="131.532px" viewBox="0 0 393 131.532" enable-background="new 0 0 393 131.532" xml:space="preserve">
<g>
	<path fill="#A71C20" d="M107.931,34.248c-8.937-9.284-20.714-15.831-34.224-17.996c-9.024-1.446-17.895-0.781-26.148,1.611
		c-0.204,0.053-0.406,0.117-0.611,0.176c-22.2,6.697-39.796,26.031-43.596,51.11c-0.006,0.017-0.008,0.023-0.009,0.04
		c-0.003,0.017-0.008,0.04-0.008,0.051c-2.463,16.263,8.345,31.496,24.142,34.027c1.216,0.197,2.418,0.305,3.618,0.338
		c0.025,0.006,0.051,0.012,0.08,0.012c2.414,0.157,3.803,1.678,4.575,3.712c1.536-4.578,2.273-10.749-4.573-11.332l0,0
		c-10.565-0.383-18.972-11.703-18.84-24.048c0.001-0.017,0.001-0.034,0.001-0.04c0-0.016,0.271-4.742,0.274-4.753
		c4.593-20.656,16-31.552,32.286-39.223c0.145-0.068,0.295-0.135,0.449-0.199c6.068-2.782,12.789-4.306,19.862-4.233
		c10.589,0.117,20.322,3.784,28.176,9.878c5.714,4.117,9.426,10.978,9.346,18.699c-0.106,10.368-7,19.015-16.288,21.548l0,0
		c0,0-33.967,10.497-41.167,24.074c-2.639,4.977-3.219,8.991-8.79,12.861c0.477,4.211-0.447,8.792-0.447,8.792
		c7.651-2.766,8.568-7.914,13.486-14.658c11.65-15.988,42.299-20.33,42.299-20.33v-0.006c12.318-1.454,22.689-11.194,24.691-24.424
		C118.006,50.076,114.501,40.601,107.931,34.248z"/>
	<path d="M336.681,46.782c-9.231-6.602-22.082-4.46-28.687,4.781c-6.604,9.244-4.466,22.089,4.775,28.696
		c9.242,6.602,22.096,4.464,28.698-4.781C348.066,66.229,345.931,53.387,336.681,46.782z M332.892,71.75l-16.397-0.065l0.066-16.398
		l16.398,0.066L332.892,71.75z"/>
	<g>
		<g>
			<path d="M153.955,101.02l-0.093,0l-0.082,0c-1.388,0-2.662,0.297-3.784,0.883c-0.73,0.38-1.415,0.89-2.046,1.522l0.014-2.055
				l-3.226,0.023l-0.094,23.363l3.225,0.005l0.017-7.907c0.679,0.639,1.401,1.146,2.159,1.516c1.131,0.578,2.409,0.877,3.805,0.89
				c2.453-0.002,4.58-0.895,6.323-2.657c1.74-1.777,2.625-3.963,2.629-6.493c0.016-2.488-0.861-4.651-2.604-6.431
				C158.464,101.915,156.364,101.02,153.955,101.02z M159.559,110.169c-0.003,1.05-0.277,2.031-0.84,3.009
				c-0.537,0.976-1.259,1.722-2.146,2.218l-0.013,0.008c-0.901,0.538-1.83,0.799-2.841,0.799h-0.051
				c-1.058-0.01-2.065-0.285-2.998-0.821c-0.931-0.523-1.652-1.24-2.146-2.126c-0.51-0.919-0.755-1.923-0.751-3.065
				c0.013-1.739,0.579-3.164,1.726-4.351c1.133-1.137,2.525-1.712,4.138-1.712h0.051c1.022,0.003,2.013,0.274,2.946,0.804
				c0.91,0.548,1.609,1.271,2.137,2.205C159.303,108.095,159.568,109.114,159.559,110.169z"/>
			<path d="M195.313,110.442c-0.023-2.381-0.663-4.373-1.896-5.911c-1.739-2.241-4.122-3.39-7.089-3.415
				c-2.872,0.013-5.195,1.116-6.909,3.28c-1.349,1.716-2.039,3.69-2.051,5.87c0.002,2.318,0.797,4.433,2.364,6.292
				c1.614,1.866,3.847,2.817,6.637,2.828l0.046,0.001c1.218,0,2.358-0.195,3.395-0.581c1.024-0.392,1.95-0.963,2.748-1.696
				c0.819-0.736,1.541-1.718,2.147-2.919l0.25-0.494l-2.731-1.405l-0.271,0.441c-0.641,1.045-1.188,1.752-1.67,2.16
				c-0.53,0.443-1.147,0.792-1.839,1.036c-0.722,0.265-1.469,0.399-2.218,0.399c-0.001,0-0.001,0-0.001,0l-0.031,0l-0.038,0
				c-1.512,0-2.817-0.561-3.878-1.667c-0.935-0.974-1.473-2.221-1.604-3.713l14.644,0.06L195.313,110.442z M181.077,108.035
				c0.391-1.056,0.891-1.843,1.521-2.398c1.027-0.931,2.252-1.389,3.746-1.399c0.879,0.009,1.714,0.204,2.557,0.597
				c0.731,0.332,1.37,0.817,1.897,1.445c0.377,0.487,0.68,1.077,0.916,1.789L181.077,108.035z"/>
			<path d="M217.797,104.883l0.009-0.009c0.37-0.348,0.815-0.517,1.361-0.517h0.033c0.9,0,1.865,0.498,2.868,1.482l0.398,0.39
				l2.143-2.18l-0.398-0.391c-1.632-1.605-3.241-2.386-4.917-2.386h-0.027c-1.417,0-2.62,0.46-3.581,1.37
				c-0.947,0.92-1.435,2.084-1.45,3.463c-0.005,1.066,0.3,2.039,0.908,2.893c0.602,0.826,1.704,1.659,3.184,2.409
				c1.601,0.829,2.218,1.335,2.45,1.608c0.303,0.364,0.455,0.783,0.454,1.236c-0.01,0.589-0.237,1.07-0.713,1.51
				c-0.478,0.435-1.053,0.646-1.759,0.646h-0.012c-1.042-0.008-2.047-0.559-2.988-1.632l-0.419-0.479l-2.046,2.324l0.286,0.365
				c0.629,0.803,1.408,1.428,2.317,1.861c0.946,0.445,1.934,0.672,2.932,0.676h0.056c1.531,0,2.834-0.514,3.876-1.532
				c1.038-1.033,1.568-2.311,1.577-3.802c-0.002-1.046-0.317-2.045-0.911-2.888l-0.008-0.011c-0.616-0.832-1.715-1.653-3.367-2.516
				c-1.55-0.786-2.126-1.327-2.333-1.579l-0.007-0.009c-0.316-0.372-0.47-0.749-0.468-1.153
				C217.249,105.596,217.434,105.208,217.797,104.883z"/>
			<path d="M257.398,103.882c-0.625-0.642-1.306-1.154-2.031-1.53c-1.143-0.617-2.452-0.933-3.889-0.939h-0.063
				c-2.425,0-4.537,0.889-6.277,2.642c-1.77,1.768-2.667,3.925-2.665,6.408c-0.016,2.527,0.854,4.711,2.58,6.488
				c1.705,1.779,3.823,2.693,6.297,2.714h0.04c1.354,0,2.633-0.284,3.81-0.85c0.762-0.382,1.481-0.882,2.148-1.495l-0.037,7.909
				l3.194,0.031l0.08-23.388l-3.167-0.021L257.398,103.882z M255.828,106.32c1.122,1.135,1.688,2.589,1.681,4.322
				c-0.007,1.122-0.259,2.12-0.772,3.047c-0.496,0.895-1.202,1.596-2.159,2.146c-0.947,0.513-1.94,0.772-2.951,0.772l-0.055,0
				l-0.075,0c-0.985,0-1.91-0.264-2.825-0.801c-0.93-0.558-1.649-1.31-2.138-2.233l-0.01-0.017c-0.546-0.95-0.822-1.962-0.817-3.003
				c0.013-1.077,0.283-2.064,0.831-3.023c0.534-0.964,1.254-1.696,2.14-2.177l0.025-0.015c0.87-0.53,1.833-0.789,2.944-0.79
				C253.326,104.563,254.692,105.14,255.828,106.32z"/>
			<path d="M288.578,110.155c-0.01,2.417-0.164,3.413-0.293,3.822c-0.293,0.807-0.792,1.452-1.485,1.919
				c-0.72,0.492-1.573,0.73-2.608,0.73h-0.068h-0.036c-1.032,0-1.927-0.257-2.654-0.761c-0.731-0.517-1.223-1.195-1.501-2.072
				c-0.167-0.646-0.257-1.886-0.266-3.68l0.042-8.172l-3.214-0.013l-0.025,8.395c-0.01,2.418,0.252,4.195,0.802,5.435
				c0.579,1.301,1.427,2.273,2.586,2.968c1.131,0.707,2.53,1.052,4.276,1.06l0.095,0c1.661,0,3.056-0.344,4.144-1.019
				c1.163-0.705,2.04-1.683,2.604-2.905c0.563-1.208,0.843-2.948,0.859-5.319l0.04-8.565l-3.259-0.004L288.578,110.155z"/>
			<polygon points="315.14,119.518 318.351,119.531 318.414,102.119 315.21,102.107 			"/>
			<path d="M348.189,105.459l0.008-0.009c0.365-0.339,0.812-0.513,1.331-0.513l0.034,0.001c0.932,0.008,1.88,0.495,2.899,1.488
				l0.403,0.393l2.112-2.203l-0.397-0.387c-1.616-1.569-3.261-2.366-4.89-2.366h-0.04c-1.407,0-2.604,0.456-3.564,1.359
				c-0.956,0.93-1.444,2.103-1.45,3.486c-0.004,1.093,0.285,2.032,0.888,2.875c0.592,0.813,1.634,1.609,3.184,2.435l0.018,0.009
				c1.706,0.833,2.28,1.391,2.444,1.586c0.317,0.39,0.47,0.797,0.463,1.25c-0.005,0.574-0.237,1.051-0.725,1.493
				c-0.506,0.442-1.058,0.648-1.735,0.648l-0.038-0.001c-1.025-0.004-2-0.539-2.977-1.637l-0.417-0.468l-2.058,2.307l0.284,0.367
				c0.62,0.801,1.423,1.441,2.322,1.85c0.92,0.461,1.901,0.694,2.916,0.694h0.038c1.54,0,2.847-0.519,3.884-1.538
				c1.055-1.018,1.607-2.334,1.597-3.793c0.015-1.073-0.297-2.048-0.929-2.905c-0.633-0.839-1.76-1.689-3.355-2.529
				c-1.484-0.758-2.084-1.275-2.325-1.576l-0.014-0.016c-0.313-0.361-0.472-0.742-0.47-1.124
				C347.642,106.178,347.83,105.781,348.189,105.459z"/>
			<path d="M387.802,102.442l-0.002,2.014c-0.607-0.617-1.286-1.124-2.029-1.513c-1.123-0.614-2.43-0.925-3.884-0.925l-0.088-0.001
				c-2.426,0-4.538,0.888-6.276,2.638c-1.753,1.767-2.644,3.912-2.648,6.372c-0.016,2.532,0.85,4.724,2.574,6.511
				c1.718,1.783,3.836,2.698,6.303,2.72h0.041c1.4,0,2.645-0.281,3.802-0.858c0.748-0.353,1.471-0.853,2.161-1.491l-0.012,1.956
				l3.18,0.03l0.071-17.431L387.802,102.442z M387.918,111.241c-0.005,1.126-0.265,2.154-0.775,3.054
				c-0.504,0.885-1.236,1.606-2.17,2.136c-0.966,0.53-1.933,0.787-2.958,0.787h-0.03c-1.055,0-2.004-0.268-2.902-0.821l-0.01-0.006
				c-0.921-0.542-1.625-1.271-2.154-2.234c-0.553-0.995-0.816-1.985-0.804-3.028v-0.011c-0.011-1.026,0.26-2.036,0.804-2.997
				c0.542-0.936,1.276-1.68,2.177-2.208c0.902-0.513,1.894-0.776,2.941-0.781c1.682,0.017,3.049,0.592,4.185,1.763
				C387.362,108.055,387.933,109.516,387.918,111.241z"/>
		</g>
		<g>
			<path d="M349.749,66.979l-0.006,1.532C349.787,68.04,349.789,67.523,349.749,66.979z"/>
			<path d="M385.025,49.047c-1.442-1.396-3.165-2.521-5.031-3.464c-22.524,3.405-30.251,22.927-30.251,22.927l-0.057,14.123
				l9.594,0.061l0.078-19.301c0.014-1.651,0.305-3.153,0.906-4.589c0.564-1.416,1.352-2.661,2.361-3.726
				c1-1.06,2.169-1.893,3.511-2.488c1.324-0.596,2.736-0.88,4.25-0.894c0,0,0.022,0.023,0.045,0.023l0.014-0.023
				c1.504,0.015,2.924,0.315,4.258,0.945c1.328,0.583,2.487,1.419,3.477,2.496c0.985,1.076,1.778,2.327,2.342,3.751
				c0.573,1.413,0.865,2.974,0.85,4.591l-0.06,19.286l9.586,0.039l0.069-19.277c0.02-2.86-0.497-5.511-1.568-8.018
				C388.35,53.013,386.886,50.865,385.025,49.047z"/>
		</g>
		<path d="M263.68,62.952c-0.005,0.618-0.025,1.259-0.098,1.921c-0.077,0.675-0.154,1.361-0.25,2.082l-30.806-0.136
			c0.35,1.113,0.848,2.165,1.483,3.167c0.648,1.018,1.425,1.9,2.367,2.625c0.911,0.748,1.969,1.308,3.159,1.749
			c1.181,0.413,2.477,0.634,3.893,0.646c1.733,0.013,3.485-0.298,5.209-0.881c1.741-0.611,3.18-1.399,4.345-2.422l6.037,6.084
			c-2.666,2.003-5.29,3.412-7.84,4.218c-2.571,0.807-5.265,1.211-8.113,1.182c-2.886,0.006-5.593-0.539-8.102-1.627
			c-2.495-1.071-4.679-2.515-6.519-4.355c-1.831-1.817-3.277-3.979-4.334-6.429c-1.054-2.506-1.574-5.136-1.554-7.923
			c-0.003-2.786,0.541-5.45,1.615-7.895c1.083-2.469,2.558-4.611,4.429-6.428c1.876-1.813,4.058-3.252,6.562-4.303
			c2.487-1.054,5.155-1.585,7.998-1.565c2.712,0.008,5.312,0.51,7.804,1.527c2.484,1.02,4.672,2.402,6.579,4.19
			c1.902,1.79,3.403,3.918,4.505,6.405C263.158,57.244,263.704,59.967,263.68,62.952z M253.63,59.175
			c-0.742-2.443-2.079-4.426-4.008-5.923c-1.928-1.491-4.112-2.246-6.564-2.265c-2.392-0.009-4.556,0.716-6.468,2.204
			c-1.924,1.49-3.269,3.453-4.036,5.888L253.63,59.175z"/>
		<path d="M303.921,76.644c-1.978,2.211-4.34,3.886-7.099,5.039c-2.764,1.146-5.649,1.696-8.679,1.695
			c-2.777-0.022-5.433-0.527-7.929-1.576c-2.47-1.008-4.625-2.43-6.445-4.247c-1.837-1.807-3.261-3.956-4.312-6.446
			c-1.051-2.506-1.571-5.192-1.562-8.076c0.003-2.851,0.547-5.521,1.626-7.953c1.063-2.487,2.513-4.605,4.332-6.417
			c1.812-1.828,3.98-3.255,6.458-4.3c2.487-1.011,5.155-1.531,7.998-1.528c2.936,0.021,5.722,0.554,8.362,1.64
			c2.654,1.083,4.94,2.709,6.889,4.907l-6.506,6.567c-0.951-1.294-2.15-2.366-3.534-3.217c-1.415-0.843-3.106-1.281-5.098-1.297
			c-1.473-0.006-2.864,0.312-4.18,0.92c-1.319,0.618-2.483,1.447-3.474,2.499c-0.995,1.026-1.792,2.272-2.393,3.679
			c-0.584,1.43-0.869,2.947-0.883,4.527c0.005,1.61,0.286,3.115,0.847,4.542c0.59,1.449,1.354,2.649,2.322,3.725
			c0.969,1.043,2.126,1.875,3.462,2.5c1.34,0.624,2.721,0.941,4.204,0.953c1.906,0.013,3.642-0.434,5.199-1.353
			c1.544-0.907,2.792-2.049,3.751-3.486L303.921,76.644z"/>
		<path d="M171.335,76.105c-1.946,2.217-4.322,3.893-7.084,5.039c-2.756,1.146-5.654,1.702-8.674,1.708
			c-2.797-0.017-5.43-0.539-7.917-1.576c-2.487-1.031-4.651-2.447-6.454-4.259c-1.834-1.806-3.27-3.962-4.333-6.434
			c-1.047-2.518-1.556-5.198-1.538-8.091c-0.012-2.833,0.532-5.507,1.606-7.965c1.076-2.46,2.515-4.603,4.338-6.394
			c1.814-1.834,3.951-3.258,6.46-4.292c2.483-1.029,5.158-1.557,8-1.54c2.942,0.008,5.734,0.564,8.369,1.625
			c2.647,1.106,4.931,2.718,6.877,4.916l-6.486,6.564c-0.981-1.289-2.169-2.363-3.559-3.22c-1.406-0.854-3.098-1.286-5.099-1.297
			c-1.464,0.008-2.85,0.329-4.171,0.942c-1.322,0.61-2.465,1.445-3.482,2.482c-0.994,1.042-1.802,2.285-2.375,3.69
			c-0.587,1.418-0.886,2.936-0.887,4.535c-0.003,1.597,0.266,3.112,0.847,4.521c0.57,1.438,1.343,2.667,2.326,3.731
			c0.969,1.031,2.115,1.875,3.451,2.505c1.34,0.629,2.734,0.941,4.192,0.936c1.915,0.014,3.665-0.439,5.214-1.347
			c1.552-0.901,2.806-2.064,3.748-3.479L171.335,76.105z"/>
		<path d="M216.435,54.812c-1.054-2.483-2.518-4.623-4.376-6.459c-1.866-1.784-4.045-3.219-6.554-4.273
			c-2.506-1.06-5.177-1.604-8.025-1.599c-2.851-0.022-5.534,0.499-8.06,1.522c-1.032,0.458-2.027,0.94-2.962,1.526l0.084-19.64
			l-9.6-0.05l-0.223,56.098l9.597,0.044l0.078-19.278c0.015-1.637,0.302-3.188,0.881-4.615c0.585-1.401,1.364-2.653,2.372-3.709
			c1-1.065,2.173-1.9,3.503-2.497c1.322-0.596,2.749-0.868,4.265-0.874c0.017,0.002,0.031,0.017,0.031,0.017
			c0.012,0,0.012-0.014,0.032-0.014c1.5-0.008,2.91,0.287,4.249,0.911c1.317,0.624,2.494,1.438,3.488,2.516
			c0.989,1.066,1.767,2.326,2.342,3.744c0.568,1.421,0.852,2.974,0.836,4.613l-0.066,19.264l9.597,0.044l0.075-19.281
			C218.022,59.971,217.492,57.301,216.435,54.812z"/>
		<path fill="#A71C20" d="M342.73,46.259c0,0,7.088,6.25,7.041,17.104c0,0,6.912-13.644,23.5-19.903c0,0-13.505-1.983-20.28,8.673
			C352.991,52.133,349.366,47.074,342.73,46.259z"/>
		<path d="M367.155,46.55"/>
	</g>
</g>
</svg>
